<?xml version="1.0" encoding="UTF-8" standalone="no"?>
<!-- Created with Inkscape (http://www.inkscape.org/) -->

<svg
   xmlns:dc="http://purl.org/dc/elements/1.1/"
   xmlns:cc="http://creativecommons.org/ns#"
   xmlns:rdf="http://www.w3.org/1999/02/22-rdf-syntax-ns#"
   xmlns:svg="http://www.w3.org/2000/svg"
   xmlns="http://www.w3.org/2000/svg"
   xmlns:sodipodi="http://sodipodi.sourceforge.net/DTD/sodipodi-0.dtd"
   xmlns:inkscape="http://www.inkscape.org/namespaces/inkscape"
   version="1.1"
   id="svg2"
   xml:space="preserve"
   width="229.60281"
   height="224.8672"
   viewBox="0 0 229.60281 224.8672"
   sodipodi:docname="cube-only-square.svg"
   inkscape:version="0.92.1 r15371"><metadata
     id="metadata8"><rdf:RDF><cc:Work
         rdf:about=""><dc:format>image/svg+xml</dc:format><dc:type
           rdf:resource="http://purl.org/dc/dcmitype/StillImage" /><dc:title></dc:title></cc:Work></rdf:RDF></metadata><defs
     id="defs6"><clipPath
       clipPathUnits="userSpaceOnUse"
       id="clipPath20"><path
         d="m 27.246,67.86479 h 143.559 v 161.91 H 27.246 Z"
         id="path18"
         inkscape:connector-curvature="0" /></clipPath><clipPath
       clipPathUnits="userSpaceOnUse"
       id="clipPath40"><path
         d="m 27,67.63779 h 788 v 163 H 27 Z"
         id="path38"
         inkscape:connector-curvature="0" /></clipPath></defs><sodipodi:namedview
     pagecolor="#ffffff"
     bordercolor="#666666"
     borderopacity="1"
     objecttolerance="10"
     gridtolerance="10"
     guidetolerance="10"
     inkscape:pageopacity="0"
     inkscape:pageshadow="2"
     inkscape:window-width="792"
     inkscape:window-height="480"
     id="namedview4"
     showgrid="false"
     inkscape:zoom="0.37105722"
     inkscape:cx="150.67089"
     inkscape:cy="112.4336"
     inkscape:window-x="0"
     inkscape:window-y="0"
     inkscape:window-maximized="0"
     inkscape:current-layer="g10" /><g
     id="g10"
     inkscape:groupmode="layer"
     inkscape:label="cube-only-square"
     transform="matrix(1.3333333,0,0,-1.3333333,-16.82812,309.99987)"><g
       id="g12" /><g
       id="g14"><g
         id="g16"
         clip-path="url(#clipPath20)"><path
           d="m 170.805,183.6928 v -69.735 c 0,-1.808 -0.637,-3.836 -1.672,-5.613 -1.035,-1.781 -2.453,-3.352 -4.02,-4.25 L 104.727,69.22379 c -3.137,-1.813 -8.266,-1.813 -11.383,0 L 32.941,104.0948 c -1.566,0.898 -2.984,2.469 -4.019,4.25 -1.035,1.777 -1.676,3.805 -1.676,5.613 v 69.735 c 0,1.808 0.641,3.82 1.676,5.601 l 60.57,-34.965 c 0.059,-0.031 0.196,-0.105 0.379,-0.23 1.918,-1.02 10,-4.809 18.754,0.258 0.184,0.109 0.348,0.215 0.516,0.308 l 59.992,34.629 c 1.035,-1.781 1.672,-3.793 1.672,-5.601"
           style="fill:#3a8bc7;fill-opacity:1;fill-rule:nonzero;stroke:none"
           id="path22"
           inkscape:connector-curvature="0" /><path
           d="m 104.727,228.4148 60.386,-34.859 c 1.567,-0.898 2.985,-2.465 4.02,-4.262 l -59.992,-34.633 c -0.168,-0.089 -0.332,-0.195 -0.516,-0.3 -8.754,-5.071 -16.836,-1.282 -18.754,-0.262 -0.183,0.121 -0.32,0.199 -0.383,0.23 l -60.566,34.965 c 1.035,1.797 2.449,3.364 4.019,4.262 l 60.399,34.859 c 3.121,1.813 8.254,1.813 11.387,0"
           style="fill:#56a7dc;fill-opacity:1;fill-rule:nonzero;stroke:none"
           id="path24"
           inkscape:connector-curvature="0" /><path
           d="m 82.316,89.16479 c -1.613,0 -3.144,0.86 -3.972,2.317 L 46.895,146.9738 v -30.211 c 0,-2.523 -2.047,-4.566 -4.567,-4.566 -2.523,0 -4.566,2.043 -4.566,4.566 v 47.531 c 0,2.074 1.394,3.887 3.402,4.414 2,0.528 4.113,-0.359 5.137,-2.164 l 31.449,-55.492 v 30.016 c 0,2.519 2.043,4.566 4.566,4.566 2.524,0 4.567,-2.047 4.567,-4.566 V 93.73179 c 0,-2.074 -1.395,-3.887 -3.403,-4.418 -0.386,-0.102 -0.777,-0.149 -1.164,-0.149"
           style="fill:#ffffff;fill-opacity:1;fill-rule:nonzero;stroke:none"
           id="path26"
           inkscape:connector-curvature="0" /><path
           d="m 114.613,88.61479 c -2.523,0 -4.566,2.046 -4.566,4.566 v 47.88701 c 0,1.629 0.871,3.14 2.289,3.957 1.414,0.812 3.16,0.812 4.57,-0.008 l 34.989,-20.324 v 39.601 c 0,2.52 2.043,4.567 4.566,4.567 2.523,0 4.566,-2.047 4.566,-4.567 v -47.531 c 0,-1.637 -0.871,-3.141 -2.285,-3.957 -1.418,-0.816 -3.164,-0.813 -4.574,0.008 l -34.988,20.32 V 93.18079 c 0,-2.52 -2.043,-4.566 -4.567,-4.566"
           style="fill:#ffffff;fill-opacity:1;fill-rule:nonzero;stroke:none"
           id="path28"
           inkscape:connector-curvature="0" /><path
           d="m 98.195,162.8718 c -0.039,0 -0.074,0.004 -0.109,0.004 -2.52,0.055 -4.52,2.149 -4.457,4.668 l 0.906,39.461 -35.328,-20.371 c -2.187,-1.258 -4.977,-0.508 -6.238,1.676 -1.258,2.183 -0.508,4.976 1.676,6.234 l 42.363,24.43 c 1.426,0.82 3.191,0.812 4.609,-0.031 1.418,-0.84 2.274,-2.383 2.235,-4.032 l -1.094,-47.578 c -0.059,-2.484 -2.09,-4.461 -4.563,-4.461"
           style="fill:#ffffff;fill-opacity:1;fill-rule:nonzero;stroke:none"
           id="path30"
           inkscape:connector-curvature="0" /><path
           d="m 112.211,171.5638 c -1.574,0 -3.102,0.812 -3.949,2.269 -1.27,2.18 -0.532,4.977 1.648,6.246 l 28.051,16.332 c 2.176,1.27 4.973,0.532 6.242,-1.648 1.27,-2.184 0.531,-4.977 -1.648,-6.246 l -28.051,-16.332 c -0.723,-0.422 -1.512,-0.621 -2.293,-0.621"
           style="fill:#ffffff;fill-opacity:1;fill-rule:nonzero;stroke:none"
           id="path32"
           inkscape:connector-curvature="0" /></g></g></g></svg>